<?xml version="1.0" encoding="utf-8"?>
<!-- Generator: Adobe Illustrator 24.3.0, SVG Export Plug-In . SVG Version: 6.00 Build 0)  -->
<svg version="1.1" id="Layer_1" xmlns="http://www.w3.org/2000/svg" xmlns:xlink="http://www.w3.org/1999/xlink" x="0px" y="0px"
	 viewBox="0 0 161.38 161.38" style="enable-background:new 0 0 161.38 161.38;" xml:space="preserve">
<style type="text/css">
	.st0{clip-path:url(#SVGID_2_);}
	.st1{fill:#FFFFFF;stroke:#4B384C;stroke-width:1.729;}
	.st2{fill:none;stroke:#FFFFFF;stroke-width:1.729;}
	.st3{fill:none;stroke:#FFFFFF;stroke-width:1.2968;}
</style>
<g>
	<g>
		<defs>
			<path id="SVGID_1_" d="M161.38,146.67c0,8.09-6.62,14.7-14.7,14.7H14.7c-8.08,0-14.7-6.62-14.7-14.7V14.7C0,6.62,6.62,0,14.7,0
				h131.97c8.09,0,14.7,6.62,14.7,14.7V146.67z"/>
		</defs>
		<use xlink:href="#SVGID_1_"  style="overflow:visible;fill:#4B384C;"/>
		<clipPath id="SVGID_2_">
			<use xlink:href="#SVGID_1_"  style="overflow:visible;"/>
		</clipPath>
		<g class="st0">
			<path class="st1" d="M45.7,34.19c0,6.97-5.65,12.62-12.62,12.62s-12.62-5.65-12.62-12.62c0-6.97,5.65-12.62,12.62-12.62
				S45.7,27.21,45.7,34.19z"/>
			<path class="st1" d="M108.71,60.8c0,8.37-6.78,15.16-15.16,15.16c-8.37,0-15.16-6.79-15.16-15.16c0-8.38,6.78-15.16,15.16-15.16
				C101.92,45.64,108.71,52.43,108.71,60.8z"/>
			<path class="st1" d="M46.86,58.68c0,8.2-6.65,14.85-14.86,14.85s-14.86-6.65-14.86-14.85c0-8.2,6.65-14.86,14.86-14.86
				S46.86,50.48,46.86,58.68z"/>
			<polyline class="st2" points="140.54,21.09 105.07,23.81 104.56,81.93 83.85,162.53 			"/>
			<polyline class="st2" points="105.07,23.81 93.55,60.8 33.08,34.19 79.6,11.08 			"/>
			<line class="st2" x1="132.36" y1="54.74" x2="145.09" y2="86.87"/>
			<polyline class="st2" points="32,58.68 -4.98,135.08 83.85,162.53 44.44,109.31 			"/>
			<polyline class="st2" points="93.55,60.8 132.36,54.74 104.56,81.93 129.63,133.87 83.85,162.53 32,58.68 44.44,109.31 
				112.34,115.98 			"/>
			<path class="st3" d="M83.85,162.53"/>
			<path class="st1" d="M153.14,86.87c0,4.45-3.6,8.05-8.05,8.05c-4.44,0-8.05-3.6-8.05-8.05c0-4.44,3.6-8.05,8.05-8.05
				C149.54,78.83,153.14,82.43,153.14,86.87z"/>
			<path class="st1" d="M86.63,11.08c0,3.88-3.15,7.03-7.03,7.03c-3.88,0-7.03-3.15-7.03-7.03c0-3.88,3.14-7.03,7.03-7.03
				C83.49,4.05,86.63,7.2,86.63,11.08z"/>
			<path class="st1" d="M117.77,115.98c0,3-2.42,5.42-5.42,5.42c-2.99,0-5.42-2.43-5.42-5.42c0-3,2.43-5.42,5.42-5.42
				C115.34,110.56,117.77,112.98,117.77,115.98z"/>
			<path class="st1" d="M122.23,81.93c0-9.76-7.92-17.68-17.67-17.68c-9.76,0-17.68,7.92-17.68,17.68c0,9.76,7.92,17.68,17.68,17.68
				C114.32,99.61,122.23,91.7,122.23,81.93z"/>
			<path class="st1" d="M96.58,162.53c0,7.03-5.7,12.73-12.73,12.73c-7.03,0-12.73-5.7-12.73-12.73c0-7.03,5.7-12.73,12.73-12.73
				C90.88,149.8,96.58,155.5,96.58,162.53z"/>
			<path class="st1" d="M140.85,133.87c0,6.19-5.03,11.22-11.22,11.22c-6.2,0-11.22-5.03-11.22-11.22c0-6.19,5.02-11.22,11.22-11.22
				C135.82,122.65,140.85,127.67,140.85,133.87z"/>
			<path class="st1" d="M117.2,23.81c0,6.7-5.43,12.13-12.13,12.13c-6.7,0-12.13-5.43-12.13-12.13c0-6.69,5.43-12.12,12.13-12.12
				C111.77,11.69,117.2,17.12,117.2,23.81z"/>
			<path class="st1" d="M9.27,135.08c0,7.87-6.38,14.25-14.25,14.25c-7.87,0-14.25-6.38-14.25-14.25c0-7.87,6.38-14.25,14.25-14.25
				C2.89,120.83,9.27,127.21,9.27,135.08z"/>
			<path class="st1" d="M151.15,21.09c0,5.86-4.75,10.61-10.61,10.61c-5.86,0-10.61-4.75-10.61-10.61c0-5.86,4.75-10.61,10.61-10.61
				C146.4,10.47,151.15,15.23,151.15,21.09z"/>
			<path class="st1" d="M147.52,54.74c0,8.37-6.79,15.16-15.16,15.16c-8.37,0-15.16-6.79-15.16-15.16c0-8.38,6.79-15.16,15.16-15.16
				C140.73,39.58,147.52,46.36,147.52,54.74z"/>
			<path class="st1" d="M57.17,109.31c0,7.03-5.7,12.73-12.73,12.73c-7.03,0-12.73-5.7-12.73-12.73c0-7.03,5.7-12.74,12.73-12.74
				C51.47,96.57,57.17,102.28,57.17,109.31z"/>
		</g>
	</g>
</g>
</svg>
